<?xml version="1.0" encoding="UTF-8" standalone="no"?>
<svg
   width="25"
   height="27"
   viewBox="0 0 25 27"
   fill="none"
   version="1.1"
   id="svg4"
   sodipodi:docname="dirma.svg"
   inkscape:version="1.4 (e7c3feb100, 2024-10-09)"
   xmlns:inkscape="http://www.inkscape.org/namespaces/inkscape"
   xmlns:sodipodi="http://sodipodi.sourceforge.net/DTD/sodipodi-0.dtd"
   xmlns="http://www.w3.org/2000/svg"
   xmlns:svg="http://www.w3.org/2000/svg">
  <sodipodi:namedview
     id="namedview4"
     pagecolor="#ffffff"
     bordercolor="#000000"
     borderopacity="0.25"
     inkscape:showpageshadow="2"
     inkscape:pageopacity="0.0"
     inkscape:pagecheckerboard="0"
     inkscape:deskcolor="#d1d1d1"
     inkscape:zoom="13.383631"
     inkscape:cx="2.1294669"
     inkscape:cy="13.822855"
     inkscape:window-width="1920"
     inkscape:window-height="1012"
     inkscape:window-x="0"
     inkscape:window-y="0"
     inkscape:window-maximized="1"
     inkscape:current-layer="Group" />
  <g
     id="Group">
    <path
       id="Vector"
       fill-rule="evenodd"
       clip-rule="evenodd"
       d="M24.7111 13.717V12.8746C24.7111 7.19623 20.2501 0.0163269 11.8282 0.0163269H0.472778C0.23059 0.964027 0.0743408 1.90783 0.0743408 3.02323C0.0743408 7.67593 3.00793 11.7241 8.43371 11.7241H10.797C15.2697 11.7631 17.6681 15.511 17.6681 19.2901C17.6681 22.3165 16.1056 25.3624 12.5978 26.5324C19.1837 26.1424 24.7111 20.3977 24.7111 13.717Z"
       fill="url(#paint0_linear_714_1184)" />
    <path
       id="Vector_2"
       fill-rule="evenodd"
       clip-rule="evenodd"
       d="M16.4803 19.2628C16.4803 17.3011 15.746 15.2068 14.0897 13.9822C13.1639 14.5048 12.0624 14.8168 10.7928 14.8285H8.42956C3.00769 14.8285 0.0701904 18.8767 0.0701904 23.5294C0.0701904 24.6448 0.230346 25.5925 0.468627 26.5363H4.22644C7.51941 26.5363 16.4764 26.8873 16.4764 19.2667L16.4803 19.2628Z"
       fill="url(#paint1_linear_714_1184)" />
  </g>
  <defs
     id="defs4">
    <linearGradient
       id="paint0_linear_714_1184"
       x1="9.53918"
       y1="1.17463"
       x2="19.1811"
       y2="23.4627"
       gradientUnits="userSpaceOnUse">
      <stop
         stop-color="#4EB96C"
         id="stop1"
         offset="0"
         style="stop-color:#ffd808;stop-opacity:1;" />
      <stop
         offset="0.99000001"
         stop-color="#398550"
         id="stop2"
         style="stop-color:#de2d00;stop-opacity:1;" />
    </linearGradient>
    <linearGradient
       id="paint1_linear_714_1184"
       x1="5.17566"
       y1="23.1043"
       x2="14.2511"
       y2="16.2693"
       gradientUnits="userSpaceOnUse">
      <stop
         stop-color="#EF5B27"
         id="stop3" />
      <stop
         offset="1"
         stop-color="#D33400"
         id="stop4" />
    </linearGradient>
  </defs>
</svg>
