<?xml version="1.0" encoding="UTF-8" standalone="no"?>
<!-- Created with Inkscape (http://www.inkscape.org/) -->

<svg
   version="1.1"
   id="svg1"
   width="512"
   height="512"
   viewBox="0 0 512 512"
   sodipodi:docname="app-store.svg"
   inkscape:version="1.4 (e7c3feb100, 2024-10-09)"
   inkscape:export-filename="app-store.png"
   inkscape:export-xdpi="12"
   inkscape:export-ydpi="12"
   xmlns:inkscape="http://www.inkscape.org/namespaces/inkscape"
   xmlns:sodipodi="http://sodipodi.sourceforge.net/DTD/sodipodi-0.dtd"
   xmlns="http://www.w3.org/2000/svg"
   xmlns:svg="http://www.w3.org/2000/svg">
  <defs
     id="defs1" />
  <sodipodi:namedview
     id="namedview1"
     pagecolor="#ffffff"
     bordercolor="#000000"
     borderopacity="0.25"
     inkscape:showpageshadow="2"
     inkscape:pageopacity="0.0"
     inkscape:pagecheckerboard="0"
     inkscape:deskcolor="#d1d1d1"
     inkscape:zoom="0.83405551"
     inkscape:cx="279.35791"
     inkscape:cy="291.34751"
     inkscape:window-width="1920"
     inkscape:window-height="1012"
     inkscape:window-x="0"
     inkscape:window-y="0"
     inkscape:window-maximized="1"
     inkscape:current-layer="g1" />
  <g
     inkscape:groupmode="layer"
     inkscape:label="Image"
     id="g1">
    <path
       style="fill:#000000;stroke-width:1.54089"
       d="m 64.182452,475.54276 c -12.04526,-5.41301 -18.501633,-15.73659 -18.501633,-29.58367 0,-8.43263 0.763066,-10.28293 12.893572,-31.26433 l 12.893571,-22.30125 7.523164,-2.00575 c 16.111449,-4.29551 37.821394,1.85793 49.649994,14.07274 l 5.14555,5.31352 -16.70219,29.0082 c -19.454833,33.78894 -23.463792,37.79985 -38.651845,38.67073 -5.737125,0.32896 -10.768267,-0.34544 -14.250183,-1.91019 z m 356.704208,-0.45688 c -3.38996,-1.6116 -7.6701,-4.58182 -9.51145,-6.60045 -1.84134,-2.01866 -31.0123,-51.60683 -64.82435,-110.19596 -68.4922,-118.68253 -68.75298,-119.23195 -68.66753,-144.66976 0.0528,-15.74838 3.00064,-27.8663 9.97804,-41.01893 4.84068,-9.1248 13.54398,-18.59179 14.67523,-15.96289 0.36468,0.84748 20.95244,36.55753 45.75059,79.35564 l 45.08752,77.81477 45.34414,0.80419 c 24.93928,0.44231 46.73094,1.41161 48.42592,2.15398 20.65134,9.04501 26.15476,34.83389 10.99119,51.50447 -7.03854,7.73806 -10.80559,8.63158 -39.91577,9.4679 l -27.3837,0.78668 16.50646,28.5064 c 15.14963,26.16321 16.55547,29.26634 17.10277,37.75171 0.74576,11.56239 -3.75423,20.95783 -13.23687,27.63706 -8.3721,5.897 -21.15995,7.02099 -30.32219,2.66519 z M 26.419745,375.89592 C 1.7676557,367.27872 -2.3609363,335.20787 19.229238,320.04026 l 6.677457,-4.69109 45.496984,-0.77043 45.496971,-0.77044 50.67177,-87.83054 c 27.86946,-48.30678 50.67534,-88.39283 50.67971,-89.08012 0.005,-0.68725 -6.93901,-13.28817 -15.42975,-28.00202 -8.49074,-14.713858 -16.46483,-29.210688 -17.72018,-32.215198 -3.4695,-8.30366 -2.83147,-16.486056 2.00788,-25.749588 10.00508,-19.151938 36.44311,-22.326199 50.16166,-6.022631 2.33514,2.775167 7.04958,10.154518 10.47651,16.39856 3.42693,6.244059 6.68816,11.350549 7.24718,11.347789 0.559,-0.004 4.32003,-5.7765 8.35779,-12.830523 8.29745,-14.495673 13.22872,-19.83811 21.50071,-23.293532 8.21192,-3.430307 16.41217,-2.959982 25.25933,1.448741 16.12134,8.033596 21.7658,24.991235 13.85161,41.614324 -2.01744,4.23744 -33.1472,58.669248 -69.17724,120.959588 l -65.50919,113.25515 53.3982,0.78577 c 57.05683,0.83963 57.52217,0.90237 67.95186,9.16284 12.68407,10.04597 19.36914,34.03558 13.43934,48.22756 l -2.41111,5.77061 -145.30715,-0.12174 C 79.258209,377.55198 29.50851,376.97552 26.419745,375.89585 Z"
       id="path1"
       sodipodi:nodetypes="ssscsscsssssssssscsssscsssssscccscssssscssssscssscsss" />
  </g>
</svg>
